<?xml version="1.0" standalone="no"?>
<!DOCTYPE svg PUBLIC "-//W3C//DTD SVG 20010904//EN"
 "http://www.w3.org/TR/2001/REC-SVG-20010904/DTD/svg10.dtd">
<svg version="1.0" xmlns="http://www.w3.org/2000/svg"
 width="1297.000000pt" height="1173.000000pt" viewBox="0 0 1297.000000 1173.000000"
 preserveAspectRatio="xMidYMid meet">

<g transform="translate(0.000000,1173.000000) scale(0.100000,-0.100000)"
fill="#000000" stroke="none">
<path d="M6115 11550 c-768 -331 -843 -364 -1100 -490 -414 -204 -658 -382
-823 -600 -89 -119 -127 -253 -119 -410 10 -180 75 -350 175 -460 l53 -59 -63
-47 c-63 -47 -125 -81 -131 -73 -89 116 -208 257 -244 289 -63 56 -133 95
-213 121 -91 30 -263 29 -375 0 -172 -45 -399 -180 -630 -372 -138 -115 -421
-401 -595 -600 -262 -299 -614 -719 -646 -769 -68 -108 -89 -274 -81 -649 12
-568 134 -1380 263 -1754 124 -355 301 -560 539 -622 116 -30 252 -19 455 36
47 12 94 20 103 16 27 -10 47 -69 53 -155 l6 -77 -83 -23 c-46 -12 -135 -47
-197 -78 -96 -47 -126 -67 -191 -132 -205 -203 -235 -490 -94 -902 114 -335
390 -856 804 -1518 214 -342 237 -372 309 -420 79 -53 169 -82 456 -147 132
-29 352 -81 489 -114 869 -208 1395 -241 1736 -110 258 99 368 261 400 584 22
239 15 212 57 219 49 7 140 -3 175 -21 43 -21 49 -53 42 -193 -8 -152 2 -209
54 -315 124 -251 359 -367 776 -382 336 -12 682 37 1320 187 137 32 354 79
480 105 328 65 390 86 470 157 76 66 125 143 585 903 238 395 437 806 524
1082 64 206 84 429 51 571 -31 130 -122 264 -233 345 -55 39 -103 65 -264 142
-89 41 -118 60 -118 74 0 22 65 154 84 170 10 9 36 6 107 -13 296 -77 522 -48
710 90 206 151 352 472 434 957 29 174 57 430 85 772 11 143 30 350 41 460 48
467 24 591 -158 801 -47 54 -167 196 -267 314 -301 358 -452 526 -646 721
-446 447 -759 629 -1080 629 -198 0 -300 -59 -471 -271 -84 -103 -141 -153
-168 -144 -30 9 -143 133 -135 147 4 7 35 58 69 113 126 203 166 309 167 445
2 189 -91 362 -301 562 -271 257 -628 449 -1421 763 -374 149 -536 217 -641
271 -135 70 -122 72 -584 -126z m592 25 c376 -128 1343 -563 1630 -733 453
-269 679 -569 634 -844 -21 -127 -82 -236 -204 -365 l-69 -73 32 -57 c18 -32
46 -76 63 -97 30 -38 215 -168 228 -160 4 2 55 67 114 144 113 148 177 212
255 254 106 58 248 71 385 36 142 -36 367 -162 550 -308 93 -74 511 -493 605
-607 151 -181 374 -441 420 -490 26 -27 74 -84 106 -126 33 -41 85 -107 118
-145 69 -82 111 -165 120 -237 4 -32 -1 -137 -13 -258 -11 -112 -27 -301 -36
-419 -39 -539 -113 -1038 -195 -1324 -109 -378 -278 -605 -494 -662 -107 -29
-237 -17 -505 47 -68 17 -125 29 -126 27 -2 -2 -23 -44 -49 -95 -47 -94 -83
-207 -88 -277 l-3 -39 64 -13 c245 -51 431 -173 509 -334 91 -185 79 -450 -33
-770 -121 -345 -309 -689 -757 -1391 -234 -367 -231 -364 -400 -444 -469 -222
-1641 -426 -2211 -385 -236 16 -346 54 -456 156 -115 107 -165 259 -178 542
-3 84 -9 155 -13 157 -4 3 -83 11 -176 20 -93 8 -183 17 -200 19 l-32 4 -6
-81 c-28 -333 -92 -535 -205 -647 -194 -194 -539 -216 -1330 -85 -777 129
-1346 294 -1486 432 -40 39 -255 371 -462 716 -382 633 -592 1121 -621 1444
-24 262 59 466 223 550 28 15 102 45 167 69 64 23 145 57 180 75 l63 34 -2
100 c-2 107 -21 181 -68 260 l-24 42 -80 -28 c-163 -58 -358 -78 -482 -49
-139 32 -286 137 -372 268 -216 326 -295 752 -385 2067 -31 439 -25 456 213
715 48 52 164 188 257 302 502 613 861 952 1188 1122 244 126 436 146 609 64
76 -36 175 -127 303 -280 50 -59 95 -108 100 -108 4 0 47 15 93 34 95 38 169
88 209 140 l26 35 -75 109 c-123 181 -171 292 -182 419 -24 288 199 564 667
823 240 133 1080 518 1433 656 266 105 286 107 454 49z"/>
<path d="M6140 9815 c0 -4 12 -56 26 -118 28 -124 28 -130 -18 -312 -36 -144
-47 -309 -29 -436 l13 -85 226 -16 c125 -8 228 -14 229 -13 4 2 -27 258 -43
355 -52 307 -165 506 -341 598 -35 18 -63 30 -63 27z"/>
<path d="M6895 9687 l0 -132 -52 -106 c-57 -116 -112 -285 -139 -428 -21 -105
-24 -98 78 -151 82 -43 158 -60 264 -60 l91 0 6 48 c17 130 29 367 23 452 -12
184 -65 317 -170 424 -104 106 -101 107 -101 -47z"/>
<path d="M7598 9593 c-5 -127 -24 -167 -127 -279 -94 -100 -164 -228 -205
-374 -43 -154 -60 -131 158 -227 104 -46 190 -82 191 -81 11 13 68 137 88 194
52 145 72 265 72 439 0 142 -3 168 -23 228 -26 73 -68 135 -118 174 l-32 24
-4 -98z"/>
<path d="M5430 9653 c0 -3 18 -45 40 -94 48 -108 59 -176 53 -334 -4 -99 -1
-148 21 -276 14 -86 26 -173 26 -194 l0 -38 118 6 c119 6 182 18 285 57 66 25
67 29 42 151 -52 247 -171 464 -323 592 -70 59 -262 154 -262 130z"/>
<path d="M8255 9302 c-21 -53 -47 -109 -57 -125 -11 -15 -63 -63 -117 -106
-149 -121 -243 -236 -307 -375 l-24 -53 97 -97 c74 -73 115 -105 168 -131 117
-57 98 -71 200 158 168 378 202 521 161 675 -14 50 -57 135 -75 146 -4 3 -25
-38 -46 -92z"/>
<path d="M4824 9259 c70 -134 107 -242 145 -418 17 -79 42 -168 56 -199 33
-72 86 -152 102 -152 16 0 396 121 405 129 10 10 -84 212 -144 307 -68 110
-199 250 -291 311 -74 49 -214 107 -285 119 l-42 6 54 -103z"/>
<path d="M8873 8956 c-17 -18 -45 -59 -63 -90 -39 -70 -78 -99 -240 -182 -109
-55 -134 -72 -182 -127 -31 -35 -86 -83 -121 -107 l-66 -43 25 -56 c42 -95 71
-137 126 -182 29 -23 74 -62 99 -87 l46 -43 60 50 c281 233 425 577 366 871
-7 38 -14 38 -50 -4z"/>
<path d="M4177 8942 c-14 -6 -3 -21 64 -87 111 -110 136 -150 185 -292 56
-165 118 -265 232 -377 l50 -49 95 46 c72 35 114 64 176 123 l81 76 -18 30
c-29 51 -165 210 -228 267 -142 131 -295 223 -420 255 -63 16 -184 20 -217 8z"/>
<path d="M6280 8739 c-806 -98 -1523 -574 -1928 -1279 -162 -282 -271 -618
-313 -955 -15 -127 -15 -438 0 -575 54 -474 253 -947 558 -1325 97 -120 296
-316 413 -407 545 -422 1203 -600 1890 -512 1110 143 2018 1021 2196 2121 52
326 30 712 -61 1069 -66 256 -143 431 -311 704 -105 170 -113 180 -286 354
-98 99 -178 183 -178 187 0 14 -168 147 -268 212 -231 152 -473 258 -756 332
-237 62 -352 77 -631 80 -137 2 -284 -1 -325 -6z m519 -233 c72 -69 40 -205
-52 -223 l-28 -6 39 -41 c21 -23 58 -71 81 -108 l41 -68 -59 0 -59 0 -43 67
c-72 112 -95 133 -140 133 l-39 0 0 -100 0 -100 -45 0 -45 0 0 241 0 240 159
-3 160 -3 30 -29z m-543 -21 c3 -20 5 -38 3 -40 -3 -2 -56 -15 -119 -30 -62
-14 -117 -28 -121 -30 -5 -4 9 -91 16 -103 1 -1 52 10 114 24 66 16 115 23
121 18 4 -5 10 -22 12 -39 l3 -30 -110 -25 c-123 -29 -124 -30 -102 -111 l12
-46 128 30 c71 16 130 27 132 25 2 -1 6 -19 10 -39 l6 -35 -158 -37 c-87 -20
-167 -38 -177 -39 -18 -3 -25 20 -72 227 -29 126 -51 232 -48 235 6 6 301 78
326 79 12 1 19 -10 24 -34z m1029 -56 c56 -28 86 -72 88 -124 1 -45 -4 -49
-49 -38 -31 7 -39 14 -46 41 -20 77 -171 101 -156 25 2 -9 39 -42 82 -73 101
-70 121 -97 120 -160 -1 -83 -59 -140 -144 -140 -131 0 -230 78 -230 181 0 40
3 49 18 48 49 -3 64 -15 80 -64 15 -44 22 -52 64 -69 40 -16 51 -17 77 -6 36
14 50 52 30 76 -7 9 -47 39 -87 66 -58 39 -78 59 -93 94 -25 56 -13 110 33
149 29 25 38 27 98 23 46 -2 82 -11 115 -29z m-1519 -278 c19 -133 33 -249 30
-256 -3 -8 -23 -23 -45 -34 l-39 -20 -186 171 c-103 94 -183 174 -179 178 4 4
24 16 43 28 l36 21 137 -130 c75 -72 137 -127 137 -122 0 5 -13 85 -30 178
-16 94 -30 173 -30 177 0 7 82 59 87 54 1 -1 19 -111 39 -245z m1855 138 l40
-20 -24 -42 c-13 -23 -63 -117 -111 -209 -48 -93 -92 -168 -97 -168 -9 0 -68
27 -78 36 -5 5 217 424 225 424 3 0 23 -9 45 -21z m301 -170 c79 -56 146 -104
150 -108 3 -3 -4 -21 -16 -38 l-23 -33 -57 41 c-32 23 -61 37 -65 33 -5 -5
-54 -76 -111 -159 -57 -82 -105 -152 -107 -154 -3 -5 -38 13 -67 34 -17 13
-12 23 93 173 61 88 111 164 111 168 0 5 -25 26 -55 47 l-55 38 21 30 c11 16
24 29 29 29 5 0 74 -45 152 -101z m-2530 -184 c68 -99 128 -185 131 -192 5 -7
-7 -22 -30 -38 l-38 -26 -17 21 c-46 56 -259 372 -254 377 19 20 72 50 77 45
3 -4 62 -88 131 -187z m-195 -149 l168 -165 -35 -35 -35 -34 -155 34 c-85 18
-166 36 -180 40 -18 4 9 -27 90 -104 l115 -110 -32 -33 -31 -32 -171 164 c-94
90 -171 166 -171 169 0 3 14 20 31 38 l30 33 162 -36 c89 -20 171 -38 182 -41
11 -3 -31 45 -93 108 l-112 113 27 28 c15 15 31 27 35 27 4 0 82 -74 175 -164z
m1603 120 c199 -27 378 -83 560 -177 836 -432 1166 -1452 742 -2295 -22 -45
-73 -130 -113 -190 -90 -135 -291 -339 -429 -437 -429 -302 -993 -389 -1500
-231 -517 161 -941 579 -1111 1096 -61 187 -83 322 -83 528 0 243 33 425 115
635 86 220 207 403 384 580 228 228 487 376 798 456 186 47 438 61 637 35z
m1477 -98 c18 -18 33 -37 33 -44 0 -11 -188 -463 -197 -473 -2 -3 -20 11 -40
31 l-36 36 24 56 23 57 -67 67 -66 66 -53 -22 -52 -22 -36 36 c-19 20 -30 38
-25 40 6 2 109 49 230 103 121 54 222 99 225 100 2 1 19 -13 37 -31z m-3344
-490 c87 -62 74 -199 -29 -299 -45 -43 -111 -51 -175 -19 -57 29 -289 161
-289 166 0 11 44 74 52 74 5 0 71 -36 147 -80 137 -79 172 -91 212 -70 44 24
64 113 32 143 -10 8 -81 52 -158 97 -77 45 -141 83 -142 84 -1 0 10 20 23 43
l25 41 137 -80 c75 -44 149 -89 165 -100z m3615 88 c77 -40 138 -172 112 -241
-12 -31 -48 -75 -61 -75 -4 0 -17 16 -29 36 -22 35 -22 36 -4 70 19 34 19 35
-5 79 -27 51 -63 68 -89 42 -14 -15 -14 -24 6 -111 26 -113 27 -128 6 -172
-39 -83 -153 -102 -223 -38 -73 65 -109 175 -82 246 10 26 56 78 68 78 4 0 18
-16 31 -36 l23 -35 -21 -26 c-50 -64 12 -187 86 -169 34 9 39 44 19 127 -22
89 -22 136 -1 177 29 56 105 79 164 48z m-3630 -2170 c74 -39 139 -149 127
-214 -7 -35 -40 -92 -53 -92 -4 0 -19 17 -33 38 -24 34 -25 39 -12 59 19 28
11 62 -23 103 -20 23 -34 30 -53 28 -37 -4 -39 -42 -7 -134 14 -41 26 -90 26
-110 0 -115 -131 -175 -228 -104 -43 30 -86 95 -102 151 -12 42 3 99 35 136
l24 28 32 -31 c30 -31 31 -33 15 -55 -9 -13 -16 -41 -16 -62 0 -68 89 -134
128 -95 18 18 14 57 -14 139 -18 52 -25 87 -21 117 10 88 99 138 175 98z
m3505 -120 c125 -29 230 -56 233 -59 3 -3 -6 -23 -21 -45 l-26 -40 -56 15
c-31 8 -59 11 -63 6 -18 -22 -100 -142 -100 -148 0 -4 14 -26 30 -50 l31 -44
-27 -41 c-15 -22 -28 -40 -30 -40 -2 0 -67 95 -145 211 l-140 211 27 39 c15
21 34 39 43 39 9 0 118 -24 244 -54z m-423 -372 c30 -168 22 -152 124 -261 22
-24 38 -44 35 -45 -2 -2 -19 -16 -36 -32 l-33 -29 -72 76 -73 76 -150 42 c-82
23 -151 42 -153 44 -1 1 17 18 41 38 l44 36 97 -31 c54 -16 100 -28 102 -25 3
3 -4 49 -16 103 l-21 97 37 38 c21 21 40 36 42 34 3 -3 17 -75 32 -161z
m-2695 52 c114 -100 134 -125 142 -170 7 -42 -26 -105 -67 -129 -32 -19 -92
-22 -121 -7 -18 10 -19 7 -19 -57 -1 -37 -6 -96 -13 -129 l-12 -62 -43 37 -42
37 10 69 c17 123 14 168 -16 196 l-26 24 -66 -72 -67 -73 -34 29 c-32 26 -34
30 -20 49 15 21 293 342 296 342 1 0 45 -38 98 -84z m388 -272 c18 -9 34 -18
36 -20 3 -3 -92 -188 -181 -351 l-40 -73 -39 21 c-22 11 -39 25 -37 32 7 27
213 407 221 407 4 0 22 -7 40 -16z m1938 -175 c104 -88 187 -164 185 -168 -3
-4 -23 -16 -45 -26 l-40 -18 -42 37 c-24 20 -45 35 -48 33 -4 -1 -41 -20 -84
-42 l-78 -40 6 -60 7 -60 -46 -22 -46 -23 0 23 c-1 12 -13 126 -28 252 l-28
230 36 22 c19 12 41 23 48 23 8 0 99 -72 203 -161z m-1756 70 l45 -11 2 -160
3 -159 68 128 c37 70 71 134 76 142 7 11 18 11 65 0 l56 -12 1 -171 1 -171 73
153 c41 83 78 152 82 152 15 0 83 -21 83 -25 0 -3 -48 -101 -107 -219 l-107
-215 -31 6 c-78 15 -75 9 -76 150 0 71 -4 149 -7 176 l-7 47 -80 -151 c-44
-83 -85 -153 -91 -156 -7 -2 -30 1 -53 7 l-41 11 0 132 c0 73 -3 183 -7 245
-3 61 -3 112 1 112 4 0 27 -5 51 -11z m1244 -204 c44 -178 49 -230 26 -275
-32 -62 -160 -95 -219 -57 -22 15 -73 95 -64 101 2 2 21 10 42 18 l40 15 15
-31 c20 -40 67 -48 96 -16 19 21 19 23 -23 193 -23 95 -42 177 -42 184 0 9 42
26 81 32 4 1 25 -73 48 -164z m-475 -42 c3 -76 8 -184 10 -240 l5 -103 -48 0
-48 0 -7 158 c-6 154 -9 300 -7 315 1 4 21 7 45 7 l44 0 6 -137z"/>
<path d="M6540 8400 l0 -60 78 0 c90 0 122 15 122 59 0 48 -26 61 -118 61
l-82 0 0 -60z"/>
<path d="M6370 7820 c-555 -76 -1032 -425 -1265 -925 -175 -375 -200 -806 -71
-1201 39 -117 146 -326 223 -433 251 -351 643 -591 1073 -656 122 -19 368 -19
490 0 347 53 654 209 905 461 385 385 548 933 439 1474 -95 470 -427 901 -859
1115 -245 122 -418 164 -690 170 -99 2 -209 0 -245 -5z m15 -629 c17 0 16 2
-5 10 l-25 11 35 18 c37 20 120 26 148 11 9 -5 40 -12 67 -16 28 -3 59 -15 71
-26 11 -10 23 -19 26 -19 3 0 16 26 28 58 27 68 40 85 40 53 0 -12 5 -42 11
-67 10 -38 14 -43 27 -32 38 32 169 259 213 371 16 40 28 67 29 60 0 -12 -45
-425 -55 -498 l-5 -40 53 56 54 56 -19 -76 c-23 -97 -22 -102 7 -67 23 29 24
29 49 13 33 -22 39 -21 26 4 -7 11 -10 23 -7 25 7 8 47 -47 41 -57 -2 -5 2
-21 10 -36 11 -21 38 -38 113 -71 54 -23 107 -42 117 -42 11 0 58 21 105 47
210 114 245 133 248 133 2 0 -27 -26 -64 -58 -114 -99 -191 -187 -199 -229 -4
-20 -4 -100 -1 -177 5 -120 9 -146 30 -185 21 -43 27 -46 71 -53 66 -9 67 -15
2 -23 -45 -6 -56 -11 -56 -25 0 -20 12 -23 353 -96 129 -28 172 -40 155 -46
-12 -3 -124 -23 -248 -43 -124 -20 -232 -38 -239 -41 -10 -3 -1 -14 28 -33 23
-16 42 -32 42 -37 0 -5 -31 -13 -68 -19 l-68 -10 3 -32 c2 -21 -3 -38 -15 -50
-10 -10 -39 -48 -65 -85 -41 -57 -48 -74 -48 -113 0 -40 3 -46 17 -41 12 5 39
-16 98 -76 95 -98 226 -250 220 -257 -3 -2 -76 31 -164 74 l-160 77 -52 -26
c-36 -17 -56 -23 -63 -16 -5 5 -23 10 -38 10 -15 0 -28 5 -28 11 0 5 -5 7 -11
3 -8 -4 -7 -9 2 -15 10 -6 4 -21 -24 -63 -20 -31 -37 -62 -37 -70 0 -29 -20
-26 -70 10 l-50 36 1 -29 c0 -15 4 -53 8 -83 6 -42 5 -50 -3 -36 -6 11 -26 36
-43 55 -40 45 -40 64 -9 -259 13 -135 22 -247 20 -249 -2 -2 -53 96 -113 218
-66 132 -117 221 -125 221 -34 0 -46 -13 -46 -49 l0 -36 -21 35 c-24 39 -69
90 -80 90 -4 0 -13 -16 -20 -35 -7 -19 -16 -35 -19 -35 -4 0 -14 15 -23 33
-13 26 -16 28 -16 11 -1 -26 -19 -34 -76 -34 -24 0 -55 -5 -68 -11 -19 -9 -31
-7 -57 6 -17 9 -34 15 -36 13 -19 -20 -158 -275 -185 -339 l-34 -82 -3 322
c-2 322 -2 323 -22 299 -17 -20 -21 -21 -30 -8 -5 8 -10 27 -10 41 0 15 -7 30
-16 33 -26 10 -76 7 -69 -4 16 -25 -10 -27 -62 -3 -45 21 -60 24 -75 14 -10
-6 -18 -8 -18 -3 0 4 9 13 20 20 27 16 25 41 -2 51 -28 10 -70 -5 -278 -105
-127 -60 -148 -68 -115 -42 85 69 165 153 185 193 32 66 41 143 29 262 -13
141 -24 166 -85 188 -27 9 -56 20 -64 23 -8 3 11 10 43 15 54 9 66 19 49 43
-4 5 -101 29 -217 53 -300 61 -307 63 -303 66 2 2 109 21 238 41 205 33 239
41 268 63 l32 26 -62 16 -63 16 45 7 c100 16 97 14 104 55 3 24 23 59 54 98
27 34 54 80 61 106 l13 46 -105 108 c-136 140 -239 257 -229 261 5 1 80 -27
168 -63 230 -96 284 -116 294 -110 5 3 18 26 29 50 29 65 97 135 132 135 15 0
31 -4 34 -10 3 -5 15 -15 27 -21 20 -11 20 -9 13 53 -3 34 -8 72 -11 83 -3 15
-1 13 8 -5 16 -30 72 -82 76 -70 3 7 -27 341 -43 490 -4 38 13 10 112 -187 96
-190 122 -233 138 -232z"/>
<path d="M6328 5213 c7 -3 16 -2 19 1 4 3 -2 6 -13 5 -11 0 -14 -3 -6 -6z"/>
<path d="M8109 7682 l-77 -37 44 -50 43 -50 26 59 c14 33 33 72 41 88 8 15 11
28 7 27 -5 0 -42 -17 -84 -37z"/>
<path d="M8281 4994 c28 -41 54 -72 58 -70 3 3 21 25 39 50 24 33 30 47 20 51
-7 2 -48 13 -90 24 l-78 19 51 -74z"/>
<path d="M5186 4709 c-43 -46 -43 -46 38 -108 60 -47 73 -49 104 -21 37 35 28
63 -35 119 -32 28 -61 51 -64 51 -4 0 -23 -18 -43 -41z"/>
<path d="M7443 4370 c3 -14 9 -52 13 -85 3 -33 8 -63 11 -67 2 -4 28 5 58 19
62 31 63 27 -28 106 -53 46 -60 49 -54 27z"/>
<path d="M9353 8392 c-62 -71 -128 -108 -250 -138 -65 -16 -130 -42 -208 -83
-158 -83 -275 -159 -275 -180 0 -78 73 -235 148 -320 41 -47 52 -53 74 -48 49
13 183 112 294 220 166 160 258 305 284 446 11 59 6 146 -9 156 -4 2 -30 -22
-58 -53z"/>
<path d="M3815 8430 c-95 -23 -142 -60 -95 -75 39 -12 167 -103 201 -143 19
-22 68 -94 109 -159 83 -133 182 -239 272 -292 32 -18 63 -34 70 -35 21 -2
225 219 252 272 l25 49 -32 30 c-91 85 -290 217 -420 278 -145 68 -290 97
-382 75z"/>
<path d="M3554 7858 c-77 -8 -156 -34 -218 -72 l-39 -23 74 -36 c41 -19 96
-43 124 -53 42 -15 77 -45 215 -184 182 -183 241 -223 329 -224 97 -2 183 83
256 251 47 108 48 123 10 136 -16 5 -118 44 -225 87 -286 112 -378 133 -526
118z"/>
<path d="M9729 7810 c-98 -63 -162 -84 -342 -109 -171 -25 -280 -56 -389 -113
-66 -34 -77 -43 -74 -62 3 -11 8 -46 11 -76 4 -41 86 -309 100 -327 5 -7 185
61 257 97 267 134 465 350 508 555 18 88 14 90 -71 35z"/>
<path d="M3403 7234 c-98 -21 -206 -67 -277 -118 -36 -26 -66 -51 -66 -57 0
-5 12 -9 28 -9 42 0 185 -37 252 -65 33 -14 120 -59 192 -100 145 -82 236
-123 344 -153 l72 -20 49 117 c66 152 70 165 87 239 l14 62 -26 14 c-54 28
-203 75 -282 90 -100 19 -301 19 -387 0z"/>
<path d="M10012 7159 c-108 -48 -153 -53 -427 -54 -247 0 -264 -1 -339 -24
-72 -23 -80 -28 -93 -60 -36 -86 -24 -253 27 -369 l20 -44 54 6 c79 10 263 60
353 96 209 83 355 205 428 355 59 123 58 130 -23 94z"/>
<path d="M3569 6630 c-269 -18 -461 -77 -538 -166 -29 -32 -68 -120 -58 -130
2 -3 50 0 106 6 133 15 188 4 305 -60 115 -61 223 -89 392 -98 68 -4 124 -7
124 -7 3 4 88 450 87 451 -8 8 -321 11 -418 4z"/>
<path d="M9236 6488 c-11 -99 -37 -420 -34 -423 5 -6 261 15 392 31 303 37
484 132 574 302 18 33 32 62 32 65 0 3 -39 -6 -87 -19 -125 -34 -178 -32 -327
16 -136 43 -202 55 -341 65 -49 3 -116 8 -147 11 l-56 6 -6 -54z"/>
<path d="M3733 6060 c-231 -48 -305 -70 -423 -127 -78 -38 -109 -59 -170 -122
-69 -69 -117 -141 -134 -198 l-7 -21 64 19 c128 38 250 41 499 9 144 -18 339
-7 375 22 28 22 41 211 27 381 -6 70 -9 77 -28 76 -12 0 -103 -18 -203 -39z"/>
<path d="M9244 5938 c-87 -136 -132 -384 -74 -403 61 -19 302 -45 425 -45 219
0 350 30 458 104 53 37 127 120 116 130 -2 2 -64 6 -136 9 l-133 4 -92 55
c-162 96 -245 128 -418 163 -47 9 -93 19 -102 21 -12 4 -25 -8 -44 -38z"/>
<path d="M3840 5496 c-267 -107 -373 -166 -471 -261 -91 -88 -136 -170 -157
-283 -5 -29 -8 -52 -7 -52 1 0 47 20 102 44 141 63 171 69 328 72 121 1 157 6
265 34 69 18 147 43 174 57 l49 25 -7 86 c-3 47 -13 113 -22 146 -19 77 -73
196 -88 195 -6 0 -81 -28 -166 -63z"/>
<path d="M9118 5395 c-66 -85 -117 -173 -138 -243 -33 -105 -33 -104 73 -155
316 -155 674 -168 877 -30 l54 36 -39 18 c-22 9 -65 22 -95 29 -127 27 -129
27 -234 132 -86 85 -112 105 -176 133 -41 18 -121 55 -177 83 l-102 52 -43
-55z"/>
<path d="M4126 5015 c-96 -50 -199 -123 -324 -230 -148 -127 -210 -211 -246
-335 -16 -57 -38 -192 -31 -198 6 -7 90 51 142 99 48 43 61 49 150 69 54 12
134 31 178 41 89 21 395 164 395 185 0 7 -12 50 -26 96 -31 98 -91 218 -137
271 l-32 37 -69 -35z"/>
<path d="M8894 4902 c-72 -47 -130 -111 -173 -191 -46 -87 -62 -137 -48 -149
7 -6 91 -50 187 -99 281 -143 473 -195 640 -174 75 10 180 39 180 50 0 8 -72
52 -138 86 -71 35 -128 88 -207 195 -50 67 -86 103 -153 151 -48 34 -114 84
-147 109 -33 26 -65 50 -71 53 -6 4 -38 -10 -70 -31z"/>
<path d="M4421 4545 c-90 -69 -225 -217 -302 -334 -76 -115 -123 -224 -139
-327 -11 -67 -6 -168 9 -193 9 -14 53 32 107 114 40 59 96 95 224 141 108 38
159 66 236 129 38 30 99 70 135 89 l67 34 -28 68 c-15 38 -44 97 -64 131 -38
65 -153 193 -173 193 -6 0 -38 -20 -72 -45z"/>
<path d="M8600 4463 c-36 -14 -82 -37 -102 -49 -39 -25 -191 -192 -186 -205 8
-24 133 -159 198 -216 203 -175 395 -253 621 -253 97 0 133 9 96 23 -6 2 -53
39 -104 81 -102 84 -133 129 -158 226 -24 94 -57 149 -154 253 -47 51 -99 109
-116 129 l-30 37 -65 -26z"/>
<path d="M4849 4188 c-6 -13 -37 -52 -68 -88 -134 -154 -198 -266 -238 -417
-22 -84 -26 -120 -27 -248 -1 -153 8 -230 25 -220 16 10 92 126 124 189 28 57
36 63 128 115 167 95 269 192 361 345 l35 60 -112 113 c-96 98 -188 173 -210
173 -3 0 -12 -10 -18 -22z"/>
<path d="M8128 4071 c-80 -29 -109 -47 -214 -129 l-62 -48 87 -124 c47 -69
131 -171 185 -227 171 -179 309 -251 524 -277 l53 -7 -16 31 c-9 18 -41 59
-72 92 -65 71 -79 101 -128 268 -64 223 -196 451 -258 449 -12 0 -57 -13 -99
-28z"/>
<path d="M5203 3718 c-84 -228 -109 -315 -122 -424 -12 -97 -1 -192 33 -275
26 -64 87 -152 98 -141 3 4 27 72 52 152 55 174 58 179 82 159 15 -12 22 -8
68 43 28 31 68 85 89 120 79 130 167 298 167 319 0 30 -53 77 -149 133 -86 51
-206 105 -232 106 -11 0 -35 -53 -86 -192z"/>
<path d="M7558 3766 c-136 -28 -198 -45 -198 -54 0 -25 73 -208 123 -307 115
-231 243 -372 409 -450 40 -19 93 -37 117 -41 42 -7 43 -6 36 17 -4 13 -27 58
-51 99 -49 86 -60 131 -69 282 -8 144 -18 198 -71 361 -44 132 -46 137 -72
136 -15 -1 -116 -20 -224 -43z"/>
<path d="M5766 3639 c-111 -242 -94 -594 42 -892 28 -63 38 -76 48 -65 27 28
64 117 79 186 17 83 19 88 109 236 48 79 75 138 97 210 17 56 40 125 50 155
23 63 21 67 -62 121 -68 44 -190 86 -276 96 l-63 7 -24 -54z"/>
<path d="M6931 3613 l-84 -4 6 -132 c6 -157 33 -264 102 -402 85 -172 200
-295 339 -361 38 -19 71 -32 72 -31 2 2 -7 36 -18 77 -20 70 -22 99 -23 405
-1 302 -3 335 -21 390 l-20 60 -134 1 c-74 0 -173 -1 -219 -3z"/>
<path d="M6311 3593 l-24 -5 7 -181 c17 -446 93 -650 290 -779 33 -21 61 -37
62 -35 2 2 -3 38 -11 81 -26 134 -21 200 24 312 22 55 47 135 56 179 21 103
47 348 37 356 -14 13 -169 59 -232 69 -65 10 -164 11 -209 3z"/>
<path d="M444 2693 c16 -77 117 -767 114 -781 -2 -10 -96 -50 -278 -117 l-275
-103 310 -154 c621 -309 1150 -529 1311 -545 30 -3 54 -9 54 -12 0 -3 -9 -30
-20 -59 -44 -117 -16 -229 80 -315 205 -185 954 -365 1980 -477 1583 -172
3967 -170 5585 5 622 68 1013 135 1406 240 371 100 536 184 602 309 31 59 30
169 -4 251 l-25 60 56 1 c107 2 267 60 590 214 448 213 1005 483 1014 490 4 5
-113 47 -260 95 -148 48 -272 90 -276 93 -4 4 20 189 52 412 33 223 60 408 60
412 0 15 -419 -111 -735 -221 -660 -230 -1136 -431 -1347 -567 -65 -42 -67
-45 -61 -76 3 -18 8 -36 12 -40 7 -8 419 -178 432 -178 19 0 8 -29 -19 -52
-30 -25 -85 -39 -692 -177 -1628 -370 -3052 -499 -4498 -406 -1106 71 -2239
244 -3047 464 -189 52 -465 141 -465 151 0 4 104 45 231 91 248 90 240 85 253
166 l6 42 -67 38 c-239 133 -1007 435 -1618 636 -213 70 -436 137 -458 137 -5
0 -6 -12 -3 -27z m1843 -1614 l30 -10 -71 -221 c-39 -122 -76 -223 -82 -225
-6 -2 -22 1 -36 6 l-26 10 69 213 c81 250 77 238 82 238 2 0 18 -5 34 -11z
m8492 -214 c29 -118 54 -223 55 -232 1 -11 -10 -19 -32 -25 -32 -9 -39 -5
-208 133 -97 77 -177 139 -180 136 -3 -2 14 -80 37 -172 45 -177 44 -184 -6
-185 -18 0 -26 24 -77 227 -31 125 -55 229 -54 231 2 1 19 5 39 9 33 5 44 -2
209 -136 96 -77 177 -141 180 -141 3 0 -14 78 -38 173 -24 94 -44 175 -44 179
0 6 21 12 55 17 6 0 34 -96 64 -214z m-8323 162 c2 -2 -17 -93 -42 -201 -25
-109 -43 -200 -40 -203 3 -3 58 -18 123 -33 114 -26 118 -27 121 -55 4 -27 3
-28 -36 -21 -22 3 -98 20 -169 36 l-130 31 27 117 c16 64 40 169 55 234 l27
116 30 -9 c17 -4 32 -10 34 -12z m426 -95 c4 -4 24 -98 44 -209 21 -112 40
-203 43 -203 3 0 55 82 115 181 l108 180 42 -6 c22 -4 44 -10 47 -14 3 -3 -12
-108 -34 -233 l-40 -228 -34 0 c-23 0 -33 5 -33 16 0 8 14 92 31 186 16 93 29
172 27 174 -2 2 -51 -74 -109 -169 -101 -165 -107 -172 -135 -168 -16 1 -31 7
-34 11 -3 5 -23 100 -45 212 -21 112 -41 194 -43 183 -2 -11 -18 -99 -35 -195
l-32 -175 -30 3 c-16 2 -32 5 -34 7 -3 4 60 378 75 444 5 22 8 23 52 16 26 -4
50 -10 54 -13z m7352 -226 c80 -116 144 -211 143 -212 -1 -1 -19 -4 -39 -8
-36 -7 -37 -6 -79 56 -23 35 -43 64 -45 66 -2 3 -142 -20 -201 -33 -18 -4 -25
-18 -38 -79 -13 -60 -21 -75 -38 -80 -58 -15 -58 -22 6 242 32 136 61 249 62
251 8 8 70 18 77 12 4 -3 72 -100 152 -215z m-445 -41 c28 -267 28 -262 -10
-267 -17 -3 -32 0 -34 6 -5 15 -45 405 -45 438 0 22 5 27 28 30 15 2 30 1 33
-2 4 -3 16 -95 28 -205z m-6339 178 c0 -5 -9 -81 -19 -169 -11 -89 -17 -172
-14 -185 13 -54 73 -89 153 -89 87 0 113 41 134 210 26 205 25 200 49 200 49
0 49 -6 27 -180 -21 -170 -36 -218 -78 -250 -76 -60 -252 -43 -321 31 -39 42
-44 89 -27 244 24 203 21 195 62 195 19 0 34 -3 34 -7z m6033 -37 c68 -28 127
-132 127 -223 0 -102 -56 -190 -138 -217 -69 -23 -272 -43 -281 -28 -9 16 -54
452 -47 459 21 21 294 28 339 9z m-542 -36 c30 0 88 -58 95 -95 6 -36 -15 -88
-43 -103 -14 -8 -12 -12 14 -26 68 -35 89 -94 57 -161 -29 -62 -81 -81 -264
-94 -63 -4 -116 -7 -117 -7 -4 3 -34 468 -30 472 7 8 208 22 241 18 16 -2 37
-4 47 -4z m-4565 -255 l91 -240 -35 -3 c-19 -2 -38 0 -42 5 -4 4 -17 38 -30
74 l-23 66 -66 7 c-36 3 -87 6 -113 6 l-48 0 -34 -68 c-34 -68 -35 -68 -71
-64 -20 2 -35 8 -33 12 2 4 55 107 118 229 l115 222 40 -3 39 -3 92 -240z
m4128 8 c63 -120 118 -226 121 -235 6 -15 1 -18 -32 -18 -38 0 -39 2 -71 65
-18 36 -38 68 -45 70 -6 3 -59 2 -116 -2 l-104 -8 -25 -72 -24 -73 -39 0 -39
0 19 48 c10 26 49 130 86 232 38 102 73 191 78 198 5 6 24 12 43 12 32 0 33
-1 148 -217z m-3888 70 c-3 -76 -9 -170 -12 -209 l-6 -71 77 -6 c43 -4 102 -7
131 -7 58 0 66 -5 57 -39 -6 -22 -7 -22 -137 -16 -72 3 -146 8 -165 11 l-34 5
7 152 c3 84 9 189 13 235 l6 82 35 0 35 0 -7 -137z m3349 103 c34 -15 95 -79
95 -101 0 -8 -12 -18 -26 -21 -22 -6 -31 -1 -52 26 -61 78 -200 82 -278 8 -75
-70 -69 -223 11 -286 60 -48 160 -53 248 -14 46 20 47 22 47 66 l0 46 -80 0
c-78 0 -80 1 -80 24 0 32 15 36 131 36 l99 0 0 -90 0 -89 -43 -26 c-159 -92
-360 -58 -429 74 -22 42 -28 67 -28 117 0 137 75 221 220 248 37 6 130 -4 165
-18z m-2675 -226 c55 -129 100 -238 100 -242 0 -13 -67 -9 -78 5 -5 6 -20 39
-32 73 l-22 61 -75 7 c-158 13 -150 16 -185 -64 -31 -69 -31 -70 -70 -70 -22
0 -37 3 -35 8 2 4 52 110 112 235 l109 228 38 -3 39 -3 99 -235z m388 220
l112 0 0 -31 0 -31 -87 3 -88 4 -5 -205 -5 -205 -37 -3 -38 -3 7 210 6 211
-91 0 c-90 0 -92 1 -92 23 0 13 3 27 8 32 4 4 50 5 102 1 52 -3 146 -6 208 -6z
m1587 -184 l140 -180 3 182 2 182 35 0 35 0 0 -240 0 -240 -34 0 c-32 0 -41 9
-157 158 -68 86 -134 171 -147 187 l-25 30 5 -187 5 -188 -32 0 -32 0 -7 92
c-3 50 -6 158 -6 240 l0 149 37 -3 c35 -3 45 -12 178 -182z m-916 163 c99 -21
143 -122 91 -207 -29 -48 -77 -64 -207 -70 l-113 -5 0 -93 0 -94 -35 0 -35 0
0 240 0 240 125 0 c68 0 147 -5 174 -11z m601 -19 l0 -30 -160 0 -160 0 0 -70
0 -69 148 -3 147 -3 3 -27 3 -28 -150 0 -151 0 0 -80 0 -80 165 0 165 0 0 -30
0 -30 -200 0 -200 0 0 240 0 240 195 0 195 0 0 -30z"/>
<path d="M10029 744 c-16 -71 -21 -114 -15 -114 17 0 157 28 161 31 1 2 -25
47 -59 100 l-62 97 -25 -114z"/>
<path d="M9287 760 c-32 -4 -61 -10 -64 -14 -8 -7 28 -356 36 -356 43 0 181
24 203 36 48 25 68 69 68 148 0 94 -27 151 -84 177 -43 20 -66 21 -159 9z"/>
<path d="M8778 713 l-48 -4 0 -70 0 -69 63 0 c145 1 214 52 159 120 -20 25
-76 32 -174 23z"/>
<path d="M8788 513 c-47 -4 -48 -5 -48 -37 0 -18 3 -55 7 -81 l6 -48 95 6
c116 7 145 23 150 84 5 71 -49 91 -210 76z"/>
<path d="M4187 588 c-26 -55 -46 -102 -45 -103 10 -9 168 -10 168 -1 0 16 -65
206 -70 205 -3 0 -27 -45 -53 -101z"/>
<path d="M8345 652 c-3 -15 -20 -64 -36 -110 -17 -46 -29 -86 -26 -88 2 -3 43
-1 89 3 l85 8 -53 107 c-47 96 -53 104 -59 80z"/>
<path d="M5140 637 c0 -10 -20 -60 -44 -111 l-44 -95 89 -3 c49 -2 89 -1 89 2
0 9 -79 212 -85 218 -3 3 -5 -2 -5 -11z"/>
<path d="M6120 534 l0 -86 111 4 c107 3 112 4 135 31 13 16 24 39 24 52 0 67
-36 85 -170 85 l-100 0 0 -86z"/>
</g>
</svg>
